<svg xmlns="http://www.w3.org/2000/svg" viewBox="0 0 216 50" width="216" height="50" shape-rendering="crispEdges"><g><rect x="0" y="12" width="4" height="4" fill="#A78BDB"/><rect x="0" y="16" width="4" height="4" fill="#A78BDB"/><rect x="4" y="16" width="4" height="4" fill="#A78BDB"/><rect x="0" y="20" width="4" height="4" fill="#A78BDB"/><rect x="4" y="20" width="4" height="4" fill="#A78BDB"/><rect x="8" y="20" width="4" height="4" fill="#A78BDB"/><rect x="0" y="24" width="4" height="4" fill="#A78BDB"/><rect x="4" y="24" width="4" height="4" fill="#A78BDB"/><rect x="8" y="24" width="4" height="4" fill="#A78BDB"/><rect x="12" y="24" width="4" height="4" fill="#A78BDB"/><rect x="0" y="28" width="4" height="4" fill="#A78BDB"/><rect x="4" y="28" width="4" height="4" fill="#A78BDB"/><rect x="8" y="28" width="4" height="4" fill="#A78BDB"/><rect x="0" y="32" width="4" height="4" fill="#A78BDB"/><rect x="4" y="32" width="4" height="4" fill="#A78BDB"/><rect x="0" y="36" width="4" height="4" fill="#A78BDB"/><animateTransform attributeName="transform" type="translate" values="0 0;6 0;0 0" dur="1s" repeatCount="indefinite"/></g><g opacity="0"><rect x="41" y="13" width="4" height="4" fill="#C4A8F0"/><rect x="45" y="13" width="4" height="4" fill="#C4A8F0"/><rect x="49" y="13" width="4" height="4" fill="#C4A8F0"/><rect x="53" y="13" width="4" height="4" fill="#C4A8F0"/><rect x="57" y="13" width="4" height="4" fill="#C4A8F0"/><rect x="41" y="17" width="4" height="4" fill="#C4A8F0"/><rect x="41" y="21" width="4" height="4" fill="#C4A8F0"/><rect x="41" y="25" width="4" height="4" fill="#C4A8F0"/><rect x="45" y="25" width="4" height="4" fill="#C4A8F0"/><rect x="49" y="25" width="4" height="4" fill="#C4A8F0"/><rect x="53" y="25" width="4" height="4" fill="#C4A8F0"/><rect x="41" y="29" width="4" height="4" fill="#C4A8F0"/><rect x="41" y="33" width="4" height="4" fill="#C4A8F0"/><rect x="41" y="37" width="4" height="4" fill="#C4A8F0"/><rect x="45" y="37" width="4" height="4" fill="#C4A8F0"/><rect x="49" y="37" width="4" height="4" fill="#C4A8F0"/><rect x="53" y="37" width="4" height="4" fill="#C4A8F0"/><rect x="57" y="37" width="4" height="4" fill="#C4A8F0"/><rect x="40" y="12" width="4" height="4" fill="#8E6CCF"/><rect x="44" y="12" width="4" height="4" fill="#8E6CCF"/><rect x="48" y="12" width="4" height="4" fill="#8E6CCF"/><rect x="52" y="12" width="4" height="4" fill="#8E6CCF"/><rect x="56" y="12" width="4" height="4" fill="#8E6CCF"/><rect x="40" y="16" width="4" height="4" fill="#8E6CCF"/><rect x="40" y="20" width="4" height="4" fill="#8E6CCF"/><rect x="40" y="24" width="4" height="4" fill="#8E6CCF"/><rect x="44" y="24" width="4" height="4" fill="#8E6CCF"/><rect x="48" y="24" width="4" height="4" fill="#8E6CCF"/><rect x="52" y="24" width="4" height="4" fill="#8E6CCF"/><rect x="40" y="28" width="4" height="4" fill="#8E6CCF"/><rect x="40" y="32" width="4" height="4" fill="#8E6CCF"/><rect x="40" y="36" width="4" height="4" fill="#8E6CCF"/><rect x="44" y="36" width="4" height="4" fill="#8E6CCF"/><rect x="48" y="36" width="4" height="4" fill="#8E6CCF"/><rect x="52" y="36" width="4" height="4" fill="#8E6CCF"/><rect x="56" y="36" width="4" height="4" fill="#8E6CCF"/><animate attributeName="opacity" from="0" to="1" begin="0.15s" dur="0.12s" fill="freeze"/><animateTransform attributeName="transform" type="translate" values="0 -8;0 0" begin="0.15s" dur="0.18s" fill="freeze"/></g><g opacity="0"><rect x="65" y="5" width="4" height="4" fill="#C4A8F0"/><rect x="81" y="5" width="4" height="4" fill="#C4A8F0"/><rect x="69" y="9" width="4" height="4" fill="#C4A8F0"/><rect x="73" y="9" width="4" height="4" fill="#C4A8F0"/><rect x="77" y="9" width="4" height="4" fill="#C4A8F0"/><rect x="69" y="13" width="4" height="4" fill="#C4A8F0"/><rect x="73" y="13" width="4" height="4" fill="#C4A8F0"/><rect x="77" y="13" width="4" height="4" fill="#C4A8F0"/><rect x="65" y="17" width="4" height="4" fill="#C4A8F0"/><rect x="81" y="17" width="4" height="4" fill="#C4A8F0"/><rect x="65" y="21" width="4" height="4" fill="#C4A8F0"/><rect x="65" y="25" width="4" height="4" fill="#C4A8F0"/><rect x="73" y="25" width="4" height="4" fill="#C4A8F0"/><rect x="77" y="25" width="4" height="4" fill="#C4A8F0"/><rect x="81" y="25" width="4" height="4" fill="#C4A8F0"/><rect x="65" y="29" width="4" height="4" fill="#C4A8F0"/><rect x="81" y="29" width="4" height="4" fill="#C4A8F0"/><rect x="65" y="33" width="4" height="4" fill="#C4A8F0"/><rect x="81" y="33" width="4" height="4" fill="#C4A8F0"/><rect x="69" y="37" width="4" height="4" fill="#C4A8F0"/><rect x="73" y="37" width="4" height="4" fill="#C4A8F0"/><rect x="77" y="37" width="4" height="4" fill="#C4A8F0"/><rect x="81" y="37" width="4" height="4" fill="#C4A8F0"/><rect x="64" y="4" width="4" height="4" fill="#8E6CCF"/><rect x="80" y="4" width="4" height="4" fill="#8E6CCF"/><rect x="68" y="8" width="4" height="4" fill="#8E6CCF"/><rect x="72" y="8" width="4" height="4" fill="#8E6CCF"/><rect x="76" y="8" width="4" height="4" fill="#8E6CCF"/><rect x="68" y="12" width="4" height="4" fill="#8E6CCF"/><rect x="72" y="12" width="4" height="4" fill="#8E6CCF"/><rect x="76" y="12" width="4" height="4" fill="#8E6CCF"/><rect x="64" y="16" width="4" height="4" fill="#8E6CCF"/><rect x="80" y="16" width="4" height="4" fill="#8E6CCF"/><rect x="64" y="20" width="4" height="4" fill="#8E6CCF"/><rect x="64" y="24" width="4" height="4" fill="#8E6CCF"/><rect x="72" y="24" width="4" height="4" fill="#8E6CCF"/><rect x="76" y="24" width="4" height="4" fill="#8E6CCF"/><rect x="80" y="24" width="4" height="4" fill="#8E6CCF"/><rect x="64" y="28" width="4" height="4" fill="#8E6CCF"/><rect x="80" y="28" width="4" height="4" fill="#8E6CCF"/><rect x="64" y="32" width="4" height="4" fill="#8E6CCF"/><rect x="80" y="32" width="4" height="4" fill="#8E6CCF"/><rect x="68" y="36" width="4" height="4" fill="#8E6CCF"/><rect x="72" y="36" width="4" height="4" fill="#8E6CCF"/><rect x="76" y="36" width="4" height="4" fill="#8E6CCF"/><rect x="80" y="36" width="4" height="4" fill="#8E6CCF"/><animate attributeName="opacity" from="0" to="1" begin="0.21s" dur="0.12s" fill="freeze"/><animateTransform attributeName="transform" type="translate" values="0 -8;0 0" begin="0.21s" dur="0.18s" fill="freeze"/></g><g opacity="0"><rect x="97" y="5" width="4" height="4" fill="#C4A8F0"/><rect x="89" y="13" width="4" height="4" fill="#C4A8F0"/><rect x="93" y="13" width="4" height="4" fill="#C4A8F0"/><rect x="97" y="13" width="4" height="4" fill="#C4A8F0"/><rect x="101" y="13" width="4" height="4" fill="#C4A8F0"/><rect x="105" y="13" width="4" height="4" fill="#C4A8F0"/><rect x="97" y="17" width="4" height="4" fill="#C4A8F0"/><rect x="97" y="21" width="4" height="4" fill="#C4A8F0"/><rect x="97" y="25" width="4" height="4" fill="#C4A8F0"/><rect x="97" y="29" width="4" height="4" fill="#C4A8F0"/><rect x="97" y="33" width="4" height="4" fill="#C4A8F0"/><rect x="89" y="37" width="4" height="4" fill="#C4A8F0"/><rect x="93" y="37" width="4" height="4" fill="#C4A8F0"/><rect x="97" y="37" width="4" height="4" fill="#C4A8F0"/><rect x="101" y="37" width="4" height="4" fill="#C4A8F0"/><rect x="105" y="37" width="4" height="4" fill="#C4A8F0"/><rect x="96" y="4" width="4" height="4" fill="#8E6CCF"/><rect x="88" y="12" width="4" height="4" fill="#8E6CCF"/><rect x="92" y="12" width="4" height="4" fill="#8E6CCF"/><rect x="96" y="12" width="4" height="4" fill="#8E6CCF"/><rect x="100" y="12" width="4" height="4" fill="#8E6CCF"/><rect x="104" y="12" width="4" height="4" fill="#8E6CCF"/><rect x="96" y="16" width="4" height="4" fill="#8E6CCF"/><rect x="96" y="20" width="4" height="4" fill="#8E6CCF"/><rect x="96" y="24" width="4" height="4" fill="#8E6CCF"/><rect x="96" y="28" width="4" height="4" fill="#8E6CCF"/><rect x="96" y="32" width="4" height="4" fill="#8E6CCF"/><rect x="88" y="36" width="4" height="4" fill="#8E6CCF"/><rect x="92" y="36" width="4" height="4" fill="#8E6CCF"/><rect x="96" y="36" width="4" height="4" fill="#8E6CCF"/><rect x="100" y="36" width="4" height="4" fill="#8E6CCF"/><rect x="104" y="36" width="4" height="4" fill="#8E6CCF"/><animate attributeName="opacity" from="0" to="1" begin="0.27s" dur="0.12s" fill="freeze"/><animateTransform attributeName="transform" type="translate" values="0 -8;0 0" begin="0.27s" dur="0.18s" fill="freeze"/></g><g opacity="0"><rect x="113" y="13" width="4" height="4" fill="#C4A8F0"/><rect x="117" y="13" width="4" height="4" fill="#C4A8F0"/><rect x="121" y="13" width="4" height="4" fill="#C4A8F0"/><rect x="125" y="13" width="4" height="4" fill="#C4A8F0"/><rect x="129" y="13" width="4" height="4" fill="#C4A8F0"/><rect x="121" y="17" width="4" height="4" fill="#C4A8F0"/><rect x="121" y="21" width="4" height="4" fill="#C4A8F0"/><rect x="121" y="25" width="4" height="4" fill="#C4A8F0"/><rect x="121" y="29" width="4" height="4" fill="#C4A8F0"/><rect x="121" y="33" width="4" height="4" fill="#C4A8F0"/><rect x="121" y="37" width="4" height="4" fill="#C4A8F0"/><rect x="112" y="12" width="4" height="4" fill="#8E6CCF"/><rect x="116" y="12" width="4" height="4" fill="#8E6CCF"/><rect x="120" y="12" width="4" height="4" fill="#8E6CCF"/><rect x="124" y="12" width="4" height="4" fill="#8E6CCF"/><rect x="128" y="12" width="4" height="4" fill="#8E6CCF"/><rect x="120" y="16" width="4" height="4" fill="#8E6CCF"/><rect x="120" y="20" width="4" height="4" fill="#8E6CCF"/><rect x="120" y="24" width="4" height="4" fill="#8E6CCF"/><rect x="120" y="28" width="4" height="4" fill="#8E6CCF"/><rect x="120" y="32" width="4" height="4" fill="#8E6CCF"/><rect x="120" y="36" width="4" height="4" fill="#8E6CCF"/><animate attributeName="opacity" from="0" to="1" begin="0.33s" dur="0.12s" fill="freeze"/><animateTransform attributeName="transform" type="translate" values="0 -8;0 0" begin="0.33s" dur="0.18s" fill="freeze"/></g><g opacity="0"><rect x="145" y="5" width="4" height="4" fill="#C4A8F0"/><rect x="137" y="13" width="4" height="4" fill="#C4A8F0"/><rect x="141" y="13" width="4" height="4" fill="#C4A8F0"/><rect x="145" y="13" width="4" height="4" fill="#C4A8F0"/><rect x="149" y="13" width="4" height="4" fill="#C4A8F0"/><rect x="153" y="13" width="4" height="4" fill="#C4A8F0"/><rect x="145" y="17" width="4" height="4" fill="#C4A8F0"/><rect x="145" y="21" width="4" height="4" fill="#C4A8F0"/><rect x="145" y="25" width="4" height="4" fill="#C4A8F0"/><rect x="145" y="29" width="4" height="4" fill="#C4A8F0"/><rect x="145" y="33" width="4" height="4" fill="#C4A8F0"/><rect x="137" y="37" width="4" height="4" fill="#C4A8F0"/><rect x="141" y="37" width="4" height="4" fill="#C4A8F0"/><rect x="145" y="37" width="4" height="4" fill="#C4A8F0"/><rect x="149" y="37" width="4" height="4" fill="#C4A8F0"/><rect x="153" y="37" width="4" height="4" fill="#C4A8F0"/><rect x="144" y="4" width="4" height="4" fill="#8E6CCF"/><rect x="136" y="12" width="4" height="4" fill="#8E6CCF"/><rect x="140" y="12" width="4" height="4" fill="#8E6CCF"/><rect x="144" y="12" width="4" height="4" fill="#8E6CCF"/><rect x="148" y="12" width="4" height="4" fill="#8E6CCF"/><rect x="152" y="12" width="4" height="4" fill="#8E6CCF"/><rect x="144" y="16" width="4" height="4" fill="#8E6CCF"/><rect x="144" y="20" width="4" height="4" fill="#8E6CCF"/><rect x="144" y="24" width="4" height="4" fill="#8E6CCF"/><rect x="144" y="28" width="4" height="4" fill="#8E6CCF"/><rect x="144" y="32" width="4" height="4" fill="#8E6CCF"/><rect x="136" y="36" width="4" height="4" fill="#8E6CCF"/><rect x="140" y="36" width="4" height="4" fill="#8E6CCF"/><rect x="144" y="36" width="4" height="4" fill="#8E6CCF"/><rect x="148" y="36" width="4" height="4" fill="#8E6CCF"/><rect x="152" y="36" width="4" height="4" fill="#8E6CCF"/><animate attributeName="opacity" from="0" to="1" begin="0.39s" dur="0.12s" fill="freeze"/><animateTransform attributeName="transform" type="translate" values="0 -8;0 0" begin="0.39s" dur="0.18s" fill="freeze"/></g><g opacity="0"><rect x="161" y="13" width="4" height="4" fill="#C4A8F0"/><rect x="177" y="13" width="4" height="4" fill="#C4A8F0"/><rect x="161" y="17" width="4" height="4" fill="#C4A8F0"/><rect x="165" y="17" width="4" height="4" fill="#C4A8F0"/><rect x="173" y="17" width="4" height="4" fill="#C4A8F0"/><rect x="177" y="17" width="4" height="4" fill="#C4A8F0"/><rect x="161" y="21" width="4" height="4" fill="#C4A8F0"/><rect x="169" y="21" width="4" height="4" fill="#C4A8F0"/><rect x="177" y="21" width="4" height="4" fill="#C4A8F0"/><rect x="161" y="25" width="4" height="4" fill="#C4A8F0"/><rect x="169" y="25" width="4" height="4" fill="#C4A8F0"/><rect x="177" y="25" width="4" height="4" fill="#C4A8F0"/><rect x="161" y="29" width="4" height="4" fill="#C4A8F0"/><rect x="177" y="29" width="4" height="4" fill="#C4A8F0"/><rect x="161" y="33" width="4" height="4" fill="#C4A8F0"/><rect x="177" y="33" width="4" height="4" fill="#C4A8F0"/><rect x="161" y="37" width="4" height="4" fill="#C4A8F0"/><rect x="177" y="37" width="4" height="4" fill="#C4A8F0"/><rect x="160" y="12" width="4" height="4" fill="#8E6CCF"/><rect x="176" y="12" width="4" height="4" fill="#8E6CCF"/><rect x="160" y="16" width="4" height="4" fill="#8E6CCF"/><rect x="164" y="16" width="4" height="4" fill="#8E6CCF"/><rect x="172" y="16" width="4" height="4" fill="#8E6CCF"/><rect x="176" y="16" width="4" height="4" fill="#8E6CCF"/><rect x="160" y="20" width="4" height="4" fill="#8E6CCF"/><rect x="168" y="20" width="4" height="4" fill="#8E6CCF"/><rect x="176" y="20" width="4" height="4" fill="#8E6CCF"/><rect x="160" y="24" width="4" height="4" fill="#8E6CCF"/><rect x="168" y="24" width="4" height="4" fill="#8E6CCF"/><rect x="176" y="24" width="4" height="4" fill="#8E6CCF"/><rect x="160" y="28" width="4" height="4" fill="#8E6CCF"/><rect x="176" y="28" width="4" height="4" fill="#8E6CCF"/><rect x="160" y="32" width="4" height="4" fill="#8E6CCF"/><rect x="176" y="32" width="4" height="4" fill="#8E6CCF"/><rect x="160" y="36" width="4" height="4" fill="#8E6CCF"/><rect x="176" y="36" width="4" height="4" fill="#8E6CCF"/><animate attributeName="opacity" from="0" to="1" begin="0.45s" dur="0.12s" fill="freeze"/><animateTransform attributeName="transform" type="translate" values="0 -8;0 0" begin="0.45s" dur="0.18s" fill="freeze"/></g><rect x="192" y="36" width="20" height="4" fill="#8E6CCF"><animate attributeName="opacity" values="1;1;0;0" keyTimes="0;.5;.5;1" dur="1s" repeatCount="indefinite"/></rect></svg>